<svg width="204" height="64" viewBox="0 0 204 64" fill="none" xmlns="http://www.w3.org/2000/svg">
<path d="M59.1165 50.3535C56.3664 50.3535 53.7883 49.8379 51.3828 48.8067C48.9764 47.7754 46.8713 46.3835 45.0666 44.6304C43.2623 42.8776 41.8354 40.8149 40.7874 38.4431C39.7384 36.0715 39.2148 33.5452 39.2148 30.8643C39.2148 28.1833 39.7384 25.6569 40.7874 23.2853C41.8354 20.9135 43.2623 18.8431 45.0666 17.0723C46.8713 15.3024 48.9764 13.9016 51.3828 12.8702C53.7883 11.8391 56.3664 11.3237 59.1165 11.3237C62.8974 11.3237 66.1882 12.097 68.9898 13.6438C71.7911 15.1902 74.0686 17.3222 75.8217 20.037C75.993 20.3125 76.0357 20.6299 75.9503 20.9909C75.8642 21.3515 75.6837 21.6182 75.4089 21.7899L69.222 25.7597C68.9463 25.9325 68.6372 25.992 68.2939 25.9404C67.9498 25.889 67.6575 25.726 67.4174 25.4506C66.3518 24.1449 65.1568 23.0965 63.834 22.3056C62.5104 21.5153 60.9378 21.1198 59.1165 21.1198C57.8097 21.1198 56.5813 21.3861 55.43 21.9188C54.2782 22.4521 53.2726 23.165 52.4137 24.0585C51.5541 24.9528 50.875 25.992 50.3773 27.1778C49.8789 28.3636 49.6297 29.5929 49.6297 30.8643C49.6297 32.171 49.8789 33.4085 50.3773 34.5766C50.875 35.7455 51.5541 36.7677 52.4137 37.6443C53.2726 38.5206 54.2782 39.2256 55.43 39.7582C56.5813 40.2913 57.8097 40.5574 59.1165 40.5574C60.4224 40.5574 61.7114 40.3171 62.9834 39.8356C64.2546 39.3545 65.269 38.5643 66.0253 37.4638C66.1969 37.1888 66.2138 36.9402 66.077 36.716C65.9392 36.4931 65.6983 36.3811 65.355 36.3811H59.4258C59.0817 36.3811 58.7896 36.261 58.5494 36.0201C58.3083 35.78 58.1886 35.4874 58.1886 35.1437V29.008C58.1886 28.6647 58.3083 28.3724 58.5494 28.1315C58.7896 27.8917 59.0817 27.7707 59.4258 27.7707H77.162C77.5055 27.7707 77.8065 27.8827 78.0644 28.1057C78.3221 28.3299 78.4679 28.6303 78.5024 29.008C78.5709 29.5929 78.6055 30.3062 78.6055 31.1478C78.6055 31.9905 78.5541 32.8582 78.451 33.7513C78.2101 36.1231 77.54 38.3232 76.4402 40.3509C75.3398 42.3796 73.9218 44.1325 72.1866 45.6097C70.4508 47.0884 68.4654 48.2484 66.2316 49.0901C63.9971 49.9322 61.6253 50.3535 59.1165 50.3535Z" fill="#00AC4E"/>
<path d="M89.8455 30.8127C89.8455 32.1194 90.0855 33.3566 90.5672 34.5249C91.0481 35.6939 91.7095 36.725 92.552 37.6183C93.3943 38.5126 94.3823 39.2256 95.5167 39.758C96.6509 40.2913 97.8538 40.5574 99.1257 40.5574C100.397 40.5574 101.601 40.2913 102.735 39.758C103.869 39.2256 104.866 38.5126 105.725 37.6183C106.584 36.725 107.254 35.6939 107.736 34.5249C108.217 33.3566 108.458 32.1194 108.458 30.8127C108.458 29.5415 108.217 28.3122 107.736 27.1262C107.254 25.9404 106.584 24.9093 105.725 24.0327C104.866 23.1562 103.869 22.4521 102.735 21.9188C101.601 21.3863 100.397 21.1198 99.1257 21.1198C97.8538 21.1198 96.6509 21.3863 95.5167 21.9188C94.3823 22.4521 93.3943 23.1562 92.552 24.0327C91.7095 24.9093 91.0481 25.9404 90.5672 27.1262C90.0855 28.3122 89.8455 29.5415 89.8455 30.8127ZM79.6367 30.8127C79.6367 28.1317 80.1526 25.6052 81.1837 23.2337C82.2148 20.8619 83.6069 18.7915 85.3598 17.0207C87.1129 15.2508 89.1753 13.8499 91.5469 12.8188C93.9187 11.7875 96.445 11.2718 99.1257 11.2718C101.807 11.2718 104.333 11.7875 106.705 12.8188C109.077 13.8499 111.147 15.2508 112.918 17.0207C114.688 18.7915 116.089 20.8619 117.12 23.2337C118.151 25.6052 118.667 28.1317 118.667 30.8127C118.667 33.4936 118.151 36.0203 117.12 38.3919C116.089 40.7637 114.688 42.8347 112.918 44.6046C111.147 46.3752 109.077 47.7756 106.705 48.8065C104.333 49.8379 101.807 50.3535 99.1257 50.3535C96.445 50.3535 93.9187 49.8379 91.5469 48.8065C89.1753 47.7756 87.1129 46.3752 85.3598 44.6046C83.6069 42.8347 82.2148 40.7637 81.1837 38.3919C80.1526 36.0203 79.6367 33.4936 79.6367 30.8127Z" fill="#00AC4E"/>
<path d="M130.275 49.6836H122.528C122.152 49.6836 121.853 49.5635 121.631 49.3226C121.408 49.0826 121.297 48.7901 121.297 48.446V13.2316C121.297 12.8885 121.408 12.5961 121.631 12.3552C121.853 12.1151 122.152 11.9942 122.528 11.9942H130.275C130.616 11.9942 130.907 12.1151 131.146 12.3552C131.386 12.5961 131.506 12.8885 131.506 13.2316V48.446C131.506 48.7901 131.386 49.0826 131.146 49.3226C130.907 49.5635 130.616 49.6836 130.275 49.6836Z" fill="#00AC4E"/>
<path d="M150.53 35.5565H155.118C155.462 35.5565 155.711 35.4453 155.866 35.2213C156.021 34.9983 156.012 34.7315 155.84 34.4221C155.496 33.5631 155.084 32.558 154.603 31.406C154.121 30.2547 153.675 29.1809 153.262 28.1836C153.125 27.8742 152.97 27.7197 152.798 27.7197C152.626 27.7197 152.471 27.8742 152.334 28.1836L149.756 34.4221C149.619 34.7315 149.619 34.9983 149.756 35.2213C149.893 35.4453 150.151 35.5565 150.53 35.5565ZM155.641 1.7749L161.502 4.29853C162.044 4.57008 162.085 4.89569 161.624 5.27538L155.803 9.63075C155.586 9.79356 155.308 9.93604 154.969 10.058C154.629 10.1801 154.324 10.2413 154.053 10.2413H148.884C148.612 10.2413 148.436 10.1669 148.354 10.0173C148.273 9.86856 148.327 9.68542 148.517 9.46794L154.134 2.18202C154.297 1.96515 154.527 1.81555 154.826 1.73425C155.125 1.65274 155.396 1.66677 155.641 1.7749ZM147.488 13.1284C147.625 12.8192 147.857 12.5534 148.184 12.3294C148.51 12.1062 148.862 11.9942 149.241 11.9942H156.459C156.802 11.9942 157.137 12.1062 157.464 12.3294C157.791 12.5534 158.023 12.8192 158.16 13.1284L173.216 48.188C173.352 48.4978 173.327 48.8246 173.138 49.1679C172.949 49.5118 172.579 49.6836 172.03 49.6836H163.213C162.834 49.6836 162.483 49.5724 162.156 49.3482C161.829 49.1252 161.58 48.8584 161.409 48.5492L160.017 45.4559C159.844 45.1463 159.595 44.8804 159.269 44.6565C158.942 44.4335 158.607 44.3215 158.263 44.3215H147.385C147.006 44.3215 146.654 44.4335 146.328 44.6565C146.001 44.8804 145.769 45.1463 145.632 45.4559L144.188 48.5492C144.05 48.8584 143.818 49.1252 143.492 49.3482C143.165 49.5724 142.83 49.6836 142.486 49.6836H133.618C133.447 49.6836 133.267 49.6499 133.077 49.5803C132.889 49.5118 132.734 49.4086 132.613 49.2712C132.493 49.1342 132.416 48.9616 132.381 48.7555C132.347 48.5492 132.399 48.3092 132.536 48.0336L147.488 13.1284Z" fill="#00AC4E"/>
<path d="M177.855 36.7419C179.712 37.9455 181.55 38.8903 183.372 39.5775C185.194 40.2657 186.895 40.6086 188.476 40.6086C189.988 40.6086 191.14 40.3946 191.931 39.9643C192.721 39.535 193.117 38.8903 193.117 38.0309C193.117 37.5846 192.944 37.2317 192.602 36.974C192.257 36.716 191.802 36.5016 191.235 36.3294C190.668 36.1579 190.006 36.0201 189.25 35.9168C188.493 35.8138 187.72 35.677 186.93 35.5044C186.174 35.3674 185.288 35.204 184.274 35.0146C183.26 34.8262 182.22 34.5508 181.155 34.1896C180.089 33.8288 179.033 33.3737 177.985 32.8235C176.936 32.2739 175.999 31.569 175.175 30.7094C174.349 29.8509 173.687 28.8277 173.189 27.6419C172.691 26.4561 172.442 25.0558 172.442 23.4398C172.442 21.068 172.906 19.109 173.834 17.5622C174.762 16.0152 175.939 14.7867 177.366 13.8757C178.791 12.9654 180.382 12.329 182.135 11.968C183.888 11.607 185.589 11.4267 187.239 11.4267C190.126 11.4267 192.713 11.8481 194.999 12.6899C197.284 13.5324 199.475 14.7609 201.573 16.3762C201.847 16.6171 202.002 16.9095 202.037 17.2528C202.07 17.5968 201.985 17.9061 201.779 18.1809L197.757 23.9038C197.551 24.1794 197.275 24.351 196.932 24.4195C196.588 24.4888 196.279 24.4195 196.004 24.2131C194.251 23.1135 192.618 22.3312 191.106 21.8674C189.593 21.4031 188.201 21.1712 186.93 21.1712C186.551 21.1712 186.113 21.18 185.615 21.197C185.117 21.2147 184.643 21.2832 184.197 21.4031C183.75 21.5241 183.38 21.7214 183.089 21.996C182.796 22.2716 182.65 22.6495 182.65 23.1304C182.65 23.6123 183.011 24.0416 183.733 24.4195C184.455 24.7981 185.28 25.1243 186.208 25.3989C187.136 25.6746 188.03 25.8888 188.889 26.0435C189.748 26.1981 190.298 26.2933 190.539 26.327C191.776 26.5679 193.134 26.9199 194.612 27.3841C196.09 27.848 197.474 28.536 198.763 29.4464C200.051 30.3576 201.134 31.5434 202.011 33.0038C202.887 34.4652 203.326 36.2957 203.326 38.4949C203.326 40.5572 202.964 42.3359 202.243 43.8312C201.521 45.3262 200.515 46.5557 199.227 47.5177C197.937 48.4803 196.391 49.1933 194.586 49.6574C192.782 50.1214 190.779 50.3535 188.58 50.3535C186.792 50.3535 185.125 50.2068 183.578 49.9151C182.032 49.6234 180.588 49.2191 179.248 48.7035C177.907 48.1878 176.661 47.5781 175.51 46.8732C174.358 46.1691 173.301 45.4215 172.339 44.6304C172.063 44.4241 171.909 44.1404 171.875 43.7796C171.84 43.4188 171.926 43.1013 172.133 42.8259L176.102 37.1026C176.309 36.828 176.584 36.6565 176.927 36.5874C177.271 36.5187 177.58 36.5703 177.855 36.7419Z" fill="#00AC4E"/>
<path d="M50.6811 50.4421C48.0859 49.3297 45.7796 47.8037 43.8263 45.9063C41.8655 44.0018 40.2951 41.7326 39.1593 39.1624C38.0152 36.5754 37.4349 33.7837 37.4349 30.8643C37.4349 27.9451 38.0152 25.1528 39.1593 22.5649C40.2931 19.9992 41.8616 17.7234 43.82 15.8022C44.4322 15.2018 45.0828 14.643 45.7621 14.1188L45.284 11.3052L35.4497 13.9601C35.4497 13.9601 30.5567 15.99 28.1136 16.5229C25.671 17.0559 24.7548 16.2567 24.7548 16.2567C24.7548 16.2567 24.1466 14.644 25.9391 13.7448C27.7317 12.845 29.3404 11.6934 29.3404 11.6934C29.3404 11.6934 30.9996 10.5497 29.8756 9.1169C28.7522 7.68455 25.042 8.72014 25.042 8.72014L19.3803 10.2572L19.3825 10.8824L19.4349 24.6298L19.4347 24.63V24.6591L0.00406289 30.3149L0 30.3157V35.2424V35.2599V40.1952V40.2397V45.1747V45.1922V50.1177V50.1271V55.0528L21.3476 48.9047L23.5251 48.2789L23.5295 49.9492L23.4932 54.7709C25.4808 58.0307 35.5471 53.9505 39.3203 52.4783C41.1073 51.7814 44.9125 50.3007 51.2244 50.6582C51.0431 50.5866 50.8604 50.519 50.6811 50.4421Z" fill="#FFDA00"/>
<path d="M19.3801 9.89465L0 15.4379V29.4503L0.000812578 30.3164L19.436 24.6596L19.3801 9.89465Z" fill="#0060AA"/>
<path d="M15.5302 12.3621L16.1906 14.0485L18.5514 13.3821L16.7719 15.3658L17.4138 17.2439L15.5461 16.538L13.6881 18.334L14.3143 16.085L12.5234 15.1457L14.8841 14.4307L15.5302 12.3621Z" fill="white"/>
<path d="M9.68085 17.9478L10.189 19.2453L12.0057 18.7327L10.6362 20.259L11.1301 21.7043L9.69325 21.161L8.26334 22.543L8.74506 20.8124L7.36719 20.0897L9.18389 19.5395L9.68085 17.9478Z" fill="white"/>
<path d="M3.89349 15.7664L4.55387 17.4528L6.91469 16.7864L5.13498 18.7701L5.77686 20.6482L3.90934 19.9423L2.05138 21.7383L2.67741 19.4893L0.886719 18.55L3.24734 17.8349L3.89349 15.7664Z" fill="white"/>
<path d="M15.5536 19.1883L16.214 20.8747L18.5748 20.2082L16.7951 22.192L17.437 24.0701L15.5695 23.3642L13.7115 25.1602L14.3376 22.9111L12.5469 21.9719L14.9075 21.2568L15.5536 19.1883Z" fill="white"/>
<path d="M3.91692 22.5945L4.5773 24.281L6.93792 23.6145L5.15841 25.5983L5.8003 27.4763L3.93258 26.7704L2.07481 28.5664L2.70084 26.3174L0.910156 25.3781L3.27057 24.6631L3.91692 22.5945Z" fill="white"/>
<path d="M0 45.1554V50.1152L23.4755 43.2801V38.4172L0 45.1554Z" fill="#00AC4E"/>
<path d="M0 35.2567V40.2168L23.4755 33.3817V28.5188L0 35.2567Z" fill="#00AC4E"/>
<path d="M19.418 19.7867L19.4365 24.6307H19.4361L19.4365 24.6602L23.4756 23.4849V18.6222L19.418 19.7867Z" fill="#00AC4E"/>
<path d="M43.0223 16.6324C43.2813 16.3495 43.5461 16.0714 43.8203 15.8023C45.7752 13.8848 48.0836 12.3479 50.6816 11.2349C50.8308 11.1709 50.9832 11.1152 51.1339 11.0548C47.8354 10.6119 44.8079 11.2575 44.6026 11.2904C39.1895 12.1597 29.0257 16.0336 28.4889 16.1814C27.0006 16.5915 23.8719 16.7295 24.8597 14.9041C25.7291 13.2984 30.5034 12.6311 30.2668 10.1201C29.9653 6.91775 23.466 8.70783 23.466 8.70783L19.3281 9.89546V9.90907L19.3791 9.89444L19.3978 14.7661L26.4746 12.7095C26.4746 12.7095 23.4491 13.6667 23.4491 15.0923C23.4491 15.782 23.4823 19.6589 23.4672 20.0507C23.4252 21.155 27.7023 21.2441 30.0928 20.5058C33.9719 19.3083 38.3598 17.5848 41.482 16.9031C41.9942 16.7913 42.5209 16.7033 43.0223 16.6324Z" fill="#00AC4E"/>
<path d="M39.1545 22.5841C37.6701 23.0095 35.8803 23.5845 33.7026 24.3711C23.5375 28.0429 23.4766 24.9679 23.4766 24.9679C23.4766 25.0636 23.477 29.9042 23.477 29.9042C25.0744 31.591 28.1636 31.3308 35.461 28.6273C36.2415 28.3381 36.9679 28.0885 37.6523 27.8671C37.9132 26.0344 38.4128 24.2656 39.1545 22.5841Z" fill="#00AC4E"/>
<path d="M37.5518 33.0787C36.4213 33.4338 35.1467 33.8629 33.7018 34.3846C23.5369 38.0567 23.479 34.9812 23.479 34.9812C23.479 35.0769 23.4766 39.9177 23.4766 39.9177C25.0735 41.6047 28.1628 41.3445 35.4605 38.6408C36.5945 38.2205 37.621 37.88 38.5539 37.5987C38.0517 36.1438 37.7132 34.6342 37.5518 33.0787Z" fill="#00AC4E"/>
<path d="M43.8276 45.9058C42.6725 44.7838 41.6566 43.5321 40.7816 42.1697C39.0442 42.6047 36.7472 43.2956 33.7012 44.396C23.5361 48.0678 23.4741 44.9942 23.4741 44.9942C23.4741 45.0517 23.4504 46.8745 23.4666 48.2936C23.4772 49.2205 23.5307 49.9668 23.5307 49.9668C25.1276 51.6536 28.1622 51.3557 35.4598 48.652C39.9464 46.9895 42.8188 46.5227 44.3705 46.409C44.1878 46.243 44.0046 46.0779 43.8276 45.9058Z" fill="#00AC4E"/>
<mask id="mask0_2751_40269" style="mask-type:luminance" maskUnits="userSpaceOnUse" x="20" y="8" width="9" height="42">
<path d="M20.957 49.0156H28.9619V8.93371H20.957V49.0156Z" fill="white"/>
</mask>
<g mask="url(#mask0_2751_40269)">
<path d="M22.3164 48.625L23.466 48.2947V48.2955L22.3164 48.625Z" fill="#DEE0E0"/>
<path d="M20.9586 49.0156H20.958V44.0121L23.4753 43.2791C23.4745 43.9854 23.4737 44.6359 23.4729 45.2182C23.4674 45.7536 23.4546 47.1434 23.4674 48.2798C23.4674 48.2886 23.4674 48.2939 23.4674 48.2957L22.3177 48.6262L20.9586 49.0156ZM23.4763 42.3466V38.4158L20.9582 39.1386V34.1145L23.4763 33.3814V32.0506C23.4777 33.2812 23.4785 34.5088 23.4787 35.7066C23.4781 37.0802 23.4767 39.916 23.4767 39.916C23.4773 39.9167 23.4777 39.9171 23.4781 39.9175C23.4777 40.7707 23.4771 41.5842 23.4763 42.3466ZM20.9584 29.241V24.2163L23.4615 23.4879C23.4643 25.0617 23.4674 26.7652 23.4706 28.5199L20.9584 29.241ZM20.9586 19.3435V14.9212C20.9586 14.9212 20.9401 14.6525 21.0311 14.2913L26.4764 12.709C26.4764 12.709 26.3758 12.7409 26.2111 12.8015C25.7739 12.9592 25.3296 13.158 24.9294 13.3848C24.3786 13.6927 23.8338 14.095 23.5873 14.5676C23.5269 14.6808 23.4859 14.7954 23.4672 14.9109C23.4564 14.9702 23.4509 15.0306 23.4509 15.0918C23.4509 15.2025 23.4517 15.3952 23.4531 15.6426C23.4521 16.2704 23.4525 17.3044 23.4542 18.6272L20.9586 19.3435Z" fill="#E5C51F"/>
<path d="M20.957 44.0117L20.9572 39.1384L23.4754 38.4157V42.3464C23.475 42.6666 23.4748 42.978 23.4744 43.2788L20.957 44.0117Z" fill="#00A14D"/>
<path d="M20.957 34.1133L20.9572 29.2398L23.4695 28.5187C23.4703 28.9758 23.4711 29.437 23.4719 29.8994C23.4731 30.6136 23.4744 31.3319 23.4752 32.0494V33.3801L20.957 34.1133Z" fill="#00A14D"/>
<path d="M20.957 24.2148L20.9572 19.342L23.4526 18.6259C23.4542 19.9839 23.4569 21.6461 23.4601 23.4866L20.957 24.2148Z" fill="#00A14D"/>
<path d="M23.4533 15.6426C23.4518 15.3952 23.451 15.2023 23.451 15.0918C23.451 15.0306 23.4565 14.9702 23.4673 14.9109C23.4602 14.9544 23.4563 14.9978 23.4559 15.0415C23.4547 15.146 23.4537 15.3503 23.4533 15.6426ZM23.5874 14.5676C23.8339 14.095 24.3787 13.6927 24.9295 13.3848C24.3228 13.7287 23.8167 14.1375 23.5874 14.5676ZM21.0312 14.2913C21.1497 13.8204 21.4546 13.1923 22.2299 12.7986C23.5998 12.1035 27.3005 11.1963 26.0746 8.97943C26.0746 8.97943 26.3673 8.93391 26.7663 8.93391C27.6188 8.93391 28.9566 9.14224 28.9621 10.4494C28.9678 11.8254 27.3877 12.4106 26.4476 12.72C26.3692 12.7458 26.2903 12.773 26.2114 12.8015C26.3759 12.7407 26.4765 12.709 26.4765 12.709L21.0312 14.2913Z" fill="#00A14D"/>
<path d="M23.478 39.918C23.4776 39.9174 23.4772 39.917 23.4766 39.9165C23.4766 39.9165 23.478 37.0807 23.4786 35.7071C23.479 37.1716 23.4788 38.5919 23.478 39.918Z" fill="#00A14D"/>
<path d="M23.4665 48.2793C23.4537 47.1427 23.4663 45.753 23.4718 45.2174C23.4693 46.9911 23.4669 48.1301 23.4665 48.2793Z" fill="#00A14D"/>
</g>
<path d="M57.33 5.65625C56.4521 5.65625 55.7409 5.38958 55.196 4.85583C54.6513 4.32167 54.3789 3.65133 54.3789 2.844V2.82835C54.3789 2.04723 54.6568 1.38055 55.2123 0.828509C55.7678 0.276466 56.4686 0.000443935 57.3137 0.000443935C57.7853 0.000443935 58.1904 0.0616241 58.5292 0.183984C58.8678 0.306548 59.1916 0.492527 59.5008 0.742532L58.8666 1.46897C58.6282 1.27649 58.3869 1.13197 58.143 1.03563C57.8993 0.939284 57.6091 0.890909 57.2733 0.890909C56.7582 0.890909 56.322 1.07994 55.9643 1.45738C55.6066 1.83503 55.4279 2.28667 55.4279 2.8127V2.82835C55.4279 3.39604 55.6066 3.86333 55.9643 4.23061C56.322 4.59769 56.7879 4.78144 57.3625 4.78144C57.8936 4.78144 58.3515 4.64342 58.7365 4.3674V3.35173H57.2814V2.50802H59.704V4.80501C59.0048 5.3725 58.2135 5.65625 57.33 5.65625Z" fill="#00AC4E"/>
<path d="M70.105 4.20337C70.4711 4.57838 70.9329 4.76578 71.491 4.76578C72.0493 4.76578 72.5085 4.58103 72.8693 4.2111C73.2295 3.84138 73.4099 3.38588 73.4099 2.8442V2.82835C73.4099 2.28687 73.2268 1.82853 72.8612 1.45352C72.4953 1.07851 72.0331 0.891112 71.4749 0.891112C70.9166 0.891112 70.4572 1.07608 70.0969 1.4458C69.7367 1.81552 69.5564 2.27122 69.5564 2.8127V2.82835C69.5564 3.37023 69.7391 3.82837 70.105 4.20337ZM71.4749 5.65625C70.6131 5.65625 69.903 5.38287 69.345 4.83611C68.7869 4.28935 68.5078 3.62531 68.5078 2.8442V2.82835C68.5078 2.04723 68.7905 1.38055 69.357 0.82851C69.9233 0.27667 70.6347 0.000647068 71.491 0.000647068C72.353 0.000647068 73.063 0.274027 73.6211 0.820786C74.1793 1.36754 74.4585 2.03158 74.4585 2.8127V2.82835C74.4585 3.60966 74.1752 4.27634 73.6089 4.82839C73.0425 5.38043 72.3311 5.65625 71.4749 5.65625Z" fill="#00AC4E"/>
<path d="M84.9398 5.60156L82.582 0.0941334H83.6877L85.403 4.29686L87.1104 0.0941334H88.1917L85.8337 5.60156H84.9398Z" fill="#00AC4E"/>
<path d="M96.9219 5.5625V0.0940962H101.141V0.953463H97.9219V2.37524H100.775V3.24233H97.9219V4.70313H101.182V5.5625H96.9219Z" fill="#00AC4E"/>
<path d="M111.125 2.80492H112.588C112.946 2.80492 113.231 2.72281 113.442 2.55878C113.653 2.39475 113.759 2.17219 113.759 1.89088V1.87523C113.759 1.57848 113.658 1.35327 113.454 1.19961C113.251 1.04594 112.96 0.969114 112.58 0.969114H111.125V2.80492ZM110.125 5.5625V0.0940962H112.662C113.366 0.0940962 113.914 0.276416 114.304 0.641058C114.618 0.958747 114.775 1.35185 114.775 1.82055V1.8362C114.775 2.26853 114.653 2.62403 114.409 2.90249C114.166 3.18135 113.838 3.3779 113.426 3.49234L114.962 5.5625H113.775L112.377 3.65636H111.125V5.5625H110.125Z" fill="#00AC4E"/>
<path d="M123.758 5.5625V0.0940962H124.685L127.733 3.87507V0.0940962H128.717V5.5625H127.88L124.742 1.67218V5.5625H123.758Z" fill="#00AC4E"/>
<path d="M139.281 4.20337C139.647 4.57838 140.109 4.76578 140.667 4.76578C141.225 4.76578 141.684 4.58103 142.045 4.2111C142.405 3.84138 142.586 3.38588 142.586 2.8442V2.82835C142.586 2.28687 142.403 1.82853 142.037 1.45352C141.671 1.07851 141.209 0.891112 140.651 0.891112C140.092 0.891112 139.633 1.07608 139.273 1.4458C138.912 1.81552 138.732 2.27122 138.732 2.8127V2.82835C138.732 3.37023 138.915 3.82837 139.281 4.20337ZM140.651 5.65625C139.789 5.65625 139.079 5.38287 138.521 4.83611C137.963 4.28935 137.684 3.62531 137.684 2.8442V2.82835C137.684 2.04723 137.966 1.38055 138.533 0.82851C139.099 0.27667 139.81 0.000647068 140.667 0.000647068C141.529 0.000647068 142.239 0.274027 142.797 0.820786C143.355 1.36754 143.634 2.03158 143.634 2.8127V2.82835C143.634 3.60966 143.351 4.27634 142.785 4.82839C142.218 5.38043 141.507 5.65625 140.651 5.65625Z" fill="#00AC4E"/>
<path d="M171.911 0.969114H170.789V4.68748H171.911C172.502 4.68748 172.979 4.51573 173.342 4.17202C173.705 3.82832 173.886 3.38563 173.886 2.84395V2.8283C173.886 2.28662 173.705 1.84149 173.342 1.4925C172.979 1.14351 172.502 0.969114 171.911 0.969114ZM169.789 5.5625V0.0940962H171.911C172.794 0.0940962 173.519 0.353248 174.085 0.871551C174.652 1.38965 174.935 2.03662 174.935 2.81265V2.8283C174.935 3.60961 174.652 4.26064 174.085 4.78139C173.519 5.30213 172.794 5.5625 171.911 5.5625H169.789Z" fill="#00AC4E"/>
<path d="M183.902 5.5625V0.0940962H188.122V0.953463H184.902V2.37524H187.756V3.24233H184.902V4.70313H188.162V5.5625H183.902Z" fill="#00AC4E"/>
<path d="M56.2852 61.8086C56.7093 62.2435 57.2466 62.461 57.8976 62.461C58.5478 62.461 59.0818 62.2468 59.499 61.8189C59.9159 61.3907 60.1249 60.8642 60.1249 60.2388V60.2187C60.1249 59.5937 59.9127 59.0634 59.4885 58.6286C59.0643 58.1941 58.5265 57.9764 57.876 57.9764C57.2254 57.9764 56.6917 58.1904 56.2746 58.6187C55.8575 59.0465 55.6488 59.5734 55.6488 60.198V60.2187C55.6488 60.8439 55.861 61.3738 56.2852 61.8086ZM60.7027 62.833C59.9497 63.5497 59.0076 63.9082 57.876 63.9082C56.7449 63.9082 55.8063 63.5531 55.0603 62.8431C54.3142 62.1332 53.9414 61.2651 53.9414 60.2388V60.2187C53.9414 59.1929 54.3176 58.3215 55.0707 57.6042C55.8238 56.8877 56.7659 56.529 57.8976 56.529C59.0285 56.529 59.9671 56.8843 60.7133 57.5943C61.4592 58.3044 61.8322 59.1721 61.8322 60.198V60.2187C61.8322 61.2447 61.4558 62.1161 60.7027 62.833Z" fill="#00AC4E"/>
<path d="M65.4922 63.7852V56.6509H71.0925V58.047H67.115V59.4944H70.6151V60.8908H67.115V62.3888H71.1454V63.7852H65.4922Z" fill="#00AC4E"/>
<path d="M74.7516 63.8887C73.528 63.8887 72.478 63.5084 71.6016 62.7472L72.5666 61.6362C73.3089 62.2138 74.0478 62.5027 74.7833 62.5027C75.1228 62.5027 75.386 62.4433 75.5736 62.3242C75.761 62.2053 75.8547 62.0405 75.8547 61.8297V61.8096C75.8547 61.6057 75.7553 61.439 75.5577 61.31C75.3596 61.1811 74.96 61.0451 74.3589 60.9024C73.9419 60.8006 73.5988 60.7002 73.3305 60.6018C73.0616 60.5034 72.8105 60.3723 72.5774 60.2093C72.3439 60.0463 72.1725 59.8425 72.0628 59.5979C71.953 59.3534 71.8985 59.0613 71.8985 58.7213V58.701C71.8985 58.0556 72.1388 57.5359 72.6199 57.1418C73.1006 56.7475 73.7262 56.5503 74.4971 56.5503C75.5435 56.5503 76.4626 56.853 77.2545 57.4574L76.4063 58.64C75.6919 58.1711 75.0486 57.9365 74.4758 57.9365C74.1644 57.9365 73.9276 57.9944 73.765 58.1097C73.6024 58.2255 73.5211 58.3749 73.5211 58.5581V58.5786C73.5211 58.8099 73.6219 58.9811 73.8236 59.0932C74.0252 59.2054 74.4581 59.3465 75.1228 59.5162C75.9289 59.7268 76.5228 59.9888 76.9047 60.3012C77.2864 60.6136 77.4773 61.0654 77.4773 61.6567V61.6768C77.4773 62.3699 77.2283 62.9118 76.7295 63.3023C76.2309 63.6933 75.5716 63.8887 74.7516 63.8887Z" fill="#00AC4E"/>
<path d="M79.9779 63.7852V58.0983H77.7188V56.6509H83.8701V58.0983H81.6111V63.7852H79.9779Z" fill="#00AC4E"/>
<path d="M85.9701 60.7991H87.9429L86.9567 58.4853L85.9701 60.7991ZM83.043 63.7852L86.2249 56.6001H87.7307L90.9126 63.7852H89.2051L88.5262 62.1849H85.3869L84.708 63.7852H83.043Z" fill="#00AC4E"/>
<path d="M94.4659 58.0676H93.2037V62.3685H94.4659C95.1305 62.3685 95.6698 62.1713 96.0834 61.7774C96.497 61.3833 96.7038 60.8703 96.7038 60.2385V60.218C96.7038 59.5863 96.497 59.0698 96.0834 58.669C95.6698 58.2678 95.1305 58.0676 94.4659 58.0676ZM91.5703 63.7852V56.6507H94.4659C95.6184 56.6507 96.5641 56.9889 97.3032 57.6651C98.042 58.3411 98.4115 59.1855 98.4115 60.1975V60.218C98.4115 61.2373 98.042 62.0865 97.3032 62.7658C96.5641 63.4455 95.6184 63.7852 94.4659 63.7852H91.5703Z" fill="#00AC4E"/>
<path d="M101.395 61.8086C101.819 62.2435 102.356 62.461 103.007 62.461C103.657 62.461 104.191 62.2468 104.608 61.8189C105.025 61.3907 105.234 60.8642 105.234 60.2388V60.2187C105.234 59.5937 105.022 59.0634 104.598 58.6286C104.174 58.1941 103.636 57.9764 102.986 57.9764C102.335 57.9764 101.801 58.1904 101.384 58.6187C100.967 59.0465 100.758 59.5734 100.758 60.198V60.2187C100.758 60.8439 100.971 61.3738 101.395 61.8086ZM105.812 62.833C105.059 63.5497 104.117 63.9082 102.986 63.9082C101.854 63.9082 100.916 63.5531 100.17 62.8431C99.4236 62.1332 99.0508 61.2651 99.0508 60.2388V60.2187C99.0508 59.1929 99.4272 58.3215 100.18 57.6042C100.933 56.8877 101.875 56.529 103.007 56.529C104.138 56.529 105.077 56.8843 105.823 57.5943C106.569 58.3044 106.942 59.1721 106.942 60.198V60.2187C106.942 61.2447 106.565 62.1161 105.812 62.833Z" fill="#00AC4E"/>
<path d="M114.226 62.4611C114.565 62.4611 114.887 62.3967 115.191 62.2674L113.993 61.279L115.032 60.1576L116.252 61.2178C116.386 60.9325 116.453 60.6062 116.453 60.2394V60.2192C116.453 59.594 116.241 59.0639 115.817 58.629C115.392 58.1944 114.855 57.9769 114.205 57.9769C113.554 57.9769 113.02 58.1907 112.603 58.619C112.186 59.0469 111.977 59.5735 111.977 60.1985V60.2192C111.977 60.844 112.189 61.3741 112.613 61.8087C113.038 62.2439 113.575 62.4611 114.226 62.4611ZM118.267 62.8892L117.228 64L116.411 63.2967C115.76 63.7045 115.025 63.9083 114.205 63.9083C113.073 63.9083 112.135 63.5534 111.389 62.8433C110.643 62.1335 110.27 61.2654 110.27 60.2394V60.2192C110.27 59.193 110.646 58.3218 111.399 57.6047C112.152 56.8881 113.094 56.5295 114.226 56.5295C115.357 56.5295 116.296 56.8846 117.042 57.5948C117.788 58.3048 118.161 59.1727 118.161 60.1985V60.2192C118.161 60.9461 117.941 61.6288 117.503 62.2674L118.267 62.8892Z" fill="#00AC4E"/>
<path d="M124.617 63.083C124.04 63.6267 123.244 63.8984 122.225 63.8984C121.207 63.8984 120.417 63.6301 119.855 63.0933C119.293 62.5565 119.012 61.7683 119.012 60.7287V56.6519H120.645V60.688C120.645 61.2657 120.785 61.7039 121.064 62.0027C121.343 62.3017 121.738 62.4513 122.247 62.4513C122.756 62.4513 123.15 62.3067 123.429 62.0179C123.708 61.7293 123.848 61.3029 123.848 60.7388V56.6519H125.482V60.6778C125.482 61.7378 125.193 62.5395 124.617 63.083Z" fill="#00AC4E"/>
<path d="M126.656 63.7852V56.6509H132.256V58.047H128.279V59.4944H131.779V60.8908H128.279V62.3888H132.309V63.7852H126.656Z" fill="#00AC4E"/>
<path d="M138.864 58.0676H137.602V62.3685H138.864C139.529 62.3685 140.068 62.1713 140.482 61.7774C140.895 61.3833 141.102 60.8703 141.102 60.2385V60.218C141.102 59.5863 140.895 59.0698 140.482 58.669C140.068 58.2678 139.529 58.0676 138.864 58.0676ZM135.969 63.7852V56.6507H138.864C140.017 56.6507 140.963 56.9889 141.702 57.6651C142.441 58.3411 142.81 59.1855 142.81 60.1975V60.218C142.81 61.2373 142.441 62.0865 141.702 62.7658C140.963 63.4455 140.017 63.7852 138.864 63.7852H135.969Z" fill="#00AC4E"/>
<path d="M145.887 55.9885L147.17 54.3884L148.559 54.9691L147.117 55.9885H145.887ZM145.537 60.7989H147.509L146.523 58.4855L145.537 60.7989ZM142.609 63.7852L145.791 56.6001H147.297L150.479 63.7852H148.771L148.093 62.1851H144.953L144.274 63.7852H142.609Z" fill="#00AC4E"/>
<path d="M157.312 63.9082C156.223 63.9082 155.316 63.5549 154.591 62.8482C153.866 62.1419 153.504 61.2722 153.504 60.2392V60.2189C153.504 59.1864 153.868 58.313 154.596 57.5995C155.324 56.8861 156.251 56.5294 157.375 56.5294C158.563 56.5294 159.539 56.8963 160.303 57.63L159.263 58.7817C158.634 58.2451 158.001 57.9766 157.365 57.9766C156.749 57.9766 156.237 58.1924 155.827 58.6237C155.417 59.0553 155.211 59.5803 155.211 60.1984V60.2189C155.211 60.8441 155.415 61.374 155.821 61.8086C156.228 62.2439 156.742 62.461 157.365 62.461C157.76 62.461 158.105 62.3931 158.399 62.2572C158.692 62.1214 158.998 61.9106 159.316 61.6254L160.355 62.6342C159.945 63.0623 159.505 63.3818 159.035 63.5923C158.565 63.8027 157.99 63.9082 157.312 63.9082Z" fill="#00AC4E"/>
<path d="M161.172 63.7852V56.6509H166.772V58.047H162.795V59.4944H166.295V60.8908H162.795V62.3888H166.825V63.7852H161.172Z" fill="#00AC4E"/>
<path d="M169.422 60.1162H171.077C171.473 60.1162 171.781 60.0261 172 59.8461C172.219 59.6662 172.329 59.4194 172.329 59.1072V59.0867C172.329 58.754 172.217 58.5007 171.994 58.3273C171.772 58.1541 171.455 58.0676 171.045 58.0676H169.422V60.1162ZM167.789 63.7852V56.6507H171.183C172.123 56.6507 172.845 56.8921 173.347 57.3745C173.771 57.7822 173.983 58.3257 173.983 59.005V59.0255C173.983 60.1196 173.453 60.8568 172.392 61.2371L174.206 63.7852H172.297L170.706 61.502H169.422V63.7852H167.789Z" fill="#00AC4E"/>
<path d="M176.697 63.7852V58.0983H174.438V56.6509H180.589V58.0983H178.33V63.7852H176.697Z" fill="#00AC4E"/>
<path d="M183.051 61.8086C183.475 62.2435 184.013 62.461 184.663 62.461C185.314 62.461 185.848 62.2468 186.265 61.8189C186.682 61.3907 186.891 60.8642 186.891 60.2388V60.2187C186.891 59.5937 186.678 59.0634 186.254 58.6286C185.83 58.1941 185.292 57.9764 184.642 57.9764C183.991 57.9764 183.458 58.1904 183.041 58.6187C182.624 59.0465 182.415 59.5734 182.415 60.198V60.2187C182.415 60.8439 182.627 61.3738 183.051 61.8086ZM187.469 62.833C186.715 63.5497 185.774 63.9082 184.642 63.9082C183.511 63.9082 182.572 63.5531 181.826 62.8431C181.08 62.1332 180.707 61.2651 180.707 60.2388V60.2187C180.707 59.1929 181.084 58.3215 181.837 57.6042C182.59 56.8877 183.532 56.529 184.663 56.529C185.795 56.529 186.733 56.8843 187.479 57.5943C188.225 58.3044 188.598 59.1721 188.598 60.198V60.2187C188.598 61.2447 188.222 62.1161 187.469 62.833Z" fill="#00AC4E"/>
</svg>
